<svg xmlns="http://www.w3.org/2000/svg" viewBox="0 0 1200 640"><title>ECC and non-ECC RAM</title>
<defs>
 <linearGradient id="bg" x1="0" y1="0" x2="1" y2="1"><stop offset="0" stop-color="#06152f"/><stop offset=".55" stop-color="#0b2b5c"/><stop offset="1" stop-color="#041027"/></linearGradient>
 <linearGradient id="blue" x1="0" x2="1"><stop offset="0" stop-color="#2e72ff"/><stop offset="1" stop-color="#86b8ff"/></linearGradient>
 <linearGradient id="cyan" x1="0" x2="1"><stop offset="0" stop-color="#35d7ff"/><stop offset="1" stop-color="#4f8cff"/></linearGradient>
 <linearGradient id="green" x1="0" x2="1"><stop offset="0" stop-color="#26b98b"/><stop offset="1" stop-color="#8cf0cc"/></linearGradient>
 <linearGradient id="gold" x1="0" x2="1"><stop offset="0" stop-color="#dda12a"/><stop offset="1" stop-color="#ffd875"/></linearGradient>
 <linearGradient id="metal" x1="0" x2="1"><stop offset="0" stop-color="#dce7f5"/><stop offset=".5" stop-color="#7f91aa"/><stop offset="1" stop-color="#f3f8ff"/></linearGradient>
 <filter id="shadow" x="-30%" y="-30%" width="160%" height="160%"><feDropShadow dx="0" dy="18" stdDeviation="18" flood-color="#001027" flood-opacity=".55"/></filter>
 <pattern id="grid" width="40" height="40" patternUnits="userSpaceOnUse"><path d="M40 0H0V40" fill="none" stroke="#a6c9ff" stroke-opacity=".07"/></pattern>
</defs>
<rect width="1200" height="640" rx="34" fill="url(#bg)"/><rect width="1200" height="640" rx="34" fill="url(#grid)"/>
<circle cx="1050" cy="80" r="245" fill="#2e72ff" opacity=".10"/><circle cx="110" cy="590" r="240" fill="#35d7ff" opacity=".055"/>

<text x="600" y="95" text-anchor="middle" font-family="Arial, sans-serif" font-size="31" font-weight="700" fill="#dceaff">ECC MEMORY FOR RELIABILITY</text>
<g filter="url(#shadow)"><rect x="100" y="175" width="450" height="310" rx="32" fill="#0a1d3c"/><rect x="650" y="175" width="450" height="310" rx="32" fill="#0a1d3c"/></g>
<text x="325" y="240" text-anchor="middle" font-family="Arial, sans-serif" font-size="25" font-weight="700" fill="#86b8ff">NON-ECC</text><text x="875" y="240" text-anchor="middle" font-family="Arial, sans-serif" font-size="25" font-weight="700" fill="#72e0bd">ECC</text>
<g transform="translate(170 285)"><rect width="310" height="100" rx="20" fill="#0d3c2f"/><rect x="25" y="22" width="38" height="55" rx="7" fill="#142840"/><rect x="79" y="22" width="38" height="55" rx="7" fill="#142840"/><rect x="133" y="22" width="38" height="55" rx="7" fill="#142840"/><rect x="187" y="22" width="38" height="55" rx="7" fill="#142840"/><rect x="241" y="22" width="38" height="55" rx="7" fill="#142840"/></g>
<g transform="translate(720 285)"><rect width="310" height="100" rx="20" fill="#0d3c2f"/><rect x="18" y="22" width="32" height="55" rx="7" fill="#142840"/><rect x="63" y="22" width="32" height="55" rx="7" fill="#142840"/><rect x="108" y="22" width="32" height="55" rx="7" fill="#142840"/><rect x="153" y="22" width="32" height="55" rx="7" fill="#142840"/><rect x="198" y="22" width="32" height="55" rx="7" fill="#142840"/><rect x="243" y="22" width="32" height="55" rx="7" fill="#142840"/><rect x="288" y="22" width="32" height="55" rx="7" fill="#142840"/></g>
<path d="M830 420l28 28 60-76" fill="none" stroke="#72e0bd" stroke-width="14" stroke-linecap="round" stroke-linejoin="round"/>
</svg>