<svg xmlns="http://www.w3.org/2000/svg" width="1200" height="675" viewBox="0 0 1200 675" role="img" aria-labelledby="title desc">
  <title id="title">Web System Delivery Flow</title><desc id="desc">Connect domain, code, hosting and secure delivery</desc>
  <defs>
    <linearGradient id="bg" x1="0" y1="0" x2="1" y2="1"><stop stop-color="#071a38"/><stop offset="1" stop-color="#031024"/></linearGradient>
    <linearGradient id="panel" x1="0" y1="0" x2="1" y2="1"><stop stop-color="#102a55"/><stop offset="1" stop-color="#081b3a"/></linearGradient>
    <filter id="shadow"><feDropShadow dx="0" dy="16" stdDeviation="22" flood-color="#000" flood-opacity=".32"/></filter>
  </defs>
  <rect width="1200" height="675" rx="34" fill="url(#bg)"/>
  <path d="M0 112H1200M0 224H1200M0 336H1200M0 448H1200M0 560H1200M150 0V675M300 0V675M450 0V675M600 0V675M750 0V675M900 0V675M1050 0V675" stroke="#17345f" stroke-opacity=".24"/>
  <rect x="58" y="54" width="1084" height="567" rx="26" fill="url(#panel)" stroke="#315c9b" stroke-opacity=".55" filter="url(#shadow)"/>
  <circle cx="92" cy="90" r="6" fill="#ff7b7b"/><circle cx="114" cy="90" r="6" fill="#f1c65c"/><circle cx="136" cy="90" r="6" fill="#57c89b"/>
  <text x="170" y="98" fill="#eef5ff" font-family="Segoe UI,Arial,sans-serif" font-size="22" font-weight="700">Web System Delivery Flow</text>
  <rect x="944" y="74" width="160" height="32" rx="16" fill="#9d8cff" fill-opacity=".14" stroke="#9d8cff" stroke-opacity=".55"/>
  <text x="1024" y="95" text-anchor="middle" fill="#9d8cff" font-family="Segoe UI,Arial,sans-serif" font-size="11" font-weight="700" letter-spacing="1.2">PRACTICAL VISUAL</text>
  <text x="82" y="140" fill="#91a9c9" font-family="Segoe UI,Arial,sans-serif" font-size="15">Connect domain, code, hosting and secure delivery</text>
  <g font-family="Segoe UI,Arial,sans-serif"><rect x="94" y="188" width="680" height="352" rx="22" fill="#071a37" stroke="#426da9" stroke-width="3"/><rect x="94" y="188" width="680" height="58" rx="22" fill="#0f2a55"/><circle cx="130" cy="217" r="7" fill="#ff7b7b"/><circle cx="154" cy="217" r="7" fill="#f1c65c"/><circle cx="178" cy="217" r="7" fill="#57c89b"/><rect x="132" y="285" width="258" height="206" rx="16" fill="#0b2449"/><path d="M182 338l-30 30 30 30M340 338l30 30-30 30" fill="none" stroke="#9d8cff" stroke-width="8" stroke-linecap="round" stroke-linejoin="round"/><path d="M235 427l48-118" stroke="#6fa8ff" stroke-width="8" stroke-linecap="round"/><g fill="#173d71"><rect x="428" y="288" width="296" height="30" rx="12"/><rect x="428" y="340" width="236" height="18" rx="9"/><rect x="428" y="380" width="270" height="18" rx="9"/><rect x="428" y="420" width="198" height="18" rx="9"/></g><g fill="#0a2144" stroke="#4b75b1" stroke-width="3"><rect x="838" y="206" width="260" height="88" rx="18"/><rect x="838" y="326" width="260" height="88" rx="18"/><rect x="838" y="446" width="260" height="88" rx="18"/></g><g fill="#e8f2ff" font-size="16" font-weight="700" text-anchor="middle"><text x="968" y="259">DOMAIN + DNS</text><text x="968" y="379">GITHUB / HOSTING</text><text x="968" y="499">HTTPS + MONITORING</text></g><g stroke="#9d8cff" stroke-width="5"><path d="M968 294v32M968 414v32"/></g></g>
  </svg>